# xmcd CD database file
#
# Track frame offsets:
#	150
#	17510
#	35543
#	51559
#	71478
#	85315
#	97336
#	111504
#	131582
#	147017
#	163494
#	184693
#	190071
#
# Disc length: 2787 seconds
#
# Revision: 0
# Processed by: cddbd v1.5.2PL0 Copyright (c) Steve Scherf et al.
# Submitted via: CDex 1.51
#
DISCID=c00ae10d
DTITLE=Mark Fosson - Jesus On A Greyhound
DYEAR=2006
DGENRE=Country
TTITLE0=Old River Rd.
TTITLE1=Little Darlin'
TTITLE2=Wrap Me Up
TTITLE3=Jesus On A Greyhound
TTITLE4=Fast Movin' Train
TTITLE5=Day The Earth Stood Still
TTITLE6=Part That I Forgot
TTITLE7=WorkWorkWork
TTITLE8=Waiting For The Sheriff
TTITLE9=Simplehearted
TTITLE10=Might As Well Be On The Moon
TTITLE11=History Of The World
TTITLE12=Hang My Picture
EXTD=YEAR: 2006
EXTT0=
EXTT1=
EXTT2=
EXTT3=
EXTT4=
EXTT5=
EXTT6=
EXTT7=
EXTT8=
EXTT9=
EXTT10=
EXTT11=
EXTT12=
PLAYORDER=
